<svg width="447" height="447" viewBox="0 0 447 447" fill="none" xmlns="http://www.w3.org/2000/svg">
<g clip-path="url(#clip0_31_349)">
<path d="M41.1751 307.688L35.0547 313.809L41.1751 319.929L47.2955 313.809L41.1751 307.688Z" fill="white"/>
<path d="M86.3295 351.203L78.5713 358.961L86.3295 366.719L94.0878 358.961L86.3295 351.203Z" fill="white"/>
<path d="M131.483 397.995L125.362 404.115L131.483 410.236L137.603 404.115L131.483 397.995Z" fill="white"/>
<path d="M41.1752 215.742L33.417 223.5L41.1752 231.258L48.9335 223.5L41.1752 215.742Z" fill="white"/>
<path d="M86.3287 257.563L75.2373 268.654L86.3287 279.746L97.4201 268.654L86.3287 257.563Z" fill="white"/>
<path d="M131.483 299.413L117.087 313.809L131.483 328.204L145.879 313.809L131.483 299.413Z" fill="white"/>
<path d="M176.636 347.87L165.545 358.961L176.636 370.052L187.728 358.961L176.636 347.87Z" fill="white"/>
<path d="M221.79 396.357L214.032 404.115L221.79 411.873L229.549 404.115L221.79 396.357Z" fill="white"/>
<path d="M41.1751 127.071L35.0547 133.191L41.1751 139.312L47.2955 133.191L41.1751 127.071Z" fill="white"/>
<path d="M86.3287 167.254L75.2373 178.346L86.3287 189.437L97.4201 178.346L86.3287 167.254Z" fill="white"/>
<path d="M131.483 207.466L115.449 223.5L131.483 239.534L147.517 223.5L131.483 207.466Z" fill="white"/>
<path d="M176.637 247.65L155.632 268.654L176.637 289.659L197.641 268.654L176.637 247.65Z" fill="white"/>
<path d="M221.791 297.775L205.757 313.809L221.791 329.842L237.824 313.809L221.791 297.775Z" fill="white"/>
<path d="M266.944 347.87L255.853 358.961L266.944 370.052L278.035 358.961L266.944 347.87Z" fill="white"/>
<path d="M312.098 397.995L305.978 404.115L312.098 410.236L318.218 404.115L312.098 397.995Z" fill="white"/>
<path d="M86.3295 80.2808L78.5713 88.0391L86.3295 95.7973L94.0878 88.0391L86.3295 80.2808Z" fill="white"/>
<path d="M131.483 118.796L117.087 133.191L131.483 147.587L145.879 133.191L131.483 118.796Z" fill="white"/>
<path d="M176.637 157.341L155.632 178.346L176.637 199.35L197.641 178.346L176.637 157.341Z" fill="white"/>
<path d="M221.791 195.858L194.148 223.5L221.791 251.142L249.433 223.5L221.791 195.858Z" fill="white"/>
<path d="M266.944 247.65L245.939 268.654L266.944 289.659L287.949 268.654L266.944 247.65Z" fill="white"/>
<path d="M312.098 299.413L297.702 313.809L312.098 328.204L326.494 313.809L312.098 299.413Z" fill="white"/>
<path d="M357.252 351.203L349.494 358.961L357.252 366.719L365.011 358.961L357.252 351.203Z" fill="white"/>
<path d="M131.483 36.7644L125.362 42.8848L131.483 49.0052L137.603 42.8848L131.483 36.7644Z" fill="white"/>
<path d="M176.636 76.9476L165.545 88.0391L176.636 99.1305L187.728 88.0391L176.636 76.9476Z" fill="white"/>
<path d="M221.791 117.158L205.757 133.191L221.791 149.225L237.824 133.191L221.791 117.158Z" fill="white"/>
<path d="M266.944 157.341L245.939 178.346L266.944 199.35L287.949 178.346L266.944 157.341Z" fill="white"/>
<path d="M312.098 207.466L296.064 223.5L312.098 239.534L328.132 223.5L312.098 207.466Z" fill="white"/>
<path d="M357.252 257.563L346.16 268.654L357.252 279.746L368.343 268.654L357.252 257.563Z" fill="white"/>
<path d="M402.406 307.688L396.285 313.809L402.406 319.929L408.526 313.809L402.406 307.688Z" fill="white"/>
<path d="M221.79 35.1265L214.032 42.8848L221.79 50.643L229.549 42.8848L221.79 35.1265Z" fill="white"/>
<path d="M266.944 76.9476L255.853 88.0391L266.944 99.1305L278.035 88.0391L266.944 76.9476Z" fill="white"/>
<path d="M312.098 118.796L297.702 133.191L312.098 147.587L326.494 133.191L312.098 118.796Z" fill="white"/>
<path d="M357.252 167.254L346.16 178.346L357.252 189.437L368.343 178.346L357.252 167.254Z" fill="white"/>
<path d="M402.406 215.742L394.647 223.5L402.406 231.258L410.164 223.5L402.406 215.742Z" fill="white"/>
<path d="M312.098 36.7644L305.978 42.8848L312.098 49.0052L318.218 42.8848L312.098 36.7644Z" fill="white"/>
<path d="M357.252 80.2808L349.494 88.0391L357.252 95.7973L365.011 88.039L357.252 80.2808Z" fill="white"/>
<path d="M402.406 127.071L396.285 133.191L402.406 139.312L408.526 133.191L402.406 127.071Z" fill="white"/>
</g>
<defs>
<clipPath id="clip0_31_349">
<rect width="447" height="447" fill="white"/>
</clipPath>
</defs>
</svg>
